<svg width="43" height="43" viewBox="0 0 43 43" fill="none" xmlns="http://www.w3.org/2000/svg">
<g clip-path="url(#clip0_8_66)">
<path d="M43 21.6314C43 9.68282 33.3734 -0.00292969 21.5 -0.00292969C9.62125 -0.000242187 -0.00537109 9.68282 -0.00537109 21.6341C-0.00537109 32.4298 7.85825 41.3792 18.1353 43.0024V27.8853H12.6796V21.6341H18.1406V16.8638C18.1406 11.4431 21.3522 8.44926 26.2623 8.44926C28.6165 8.44926 31.0756 8.8712 31.0756 8.8712V14.1924H28.3639C25.6952 14.1924 24.8621 15.8614 24.8621 17.5733V21.6314H30.8229L29.8716 27.8826H24.8594V42.9998C35.1364 41.3765 43 32.4271 43 21.6314Z" fill="#699BF7"/>
</g>
<defs>
<clipPath id="clip0_8_66">
<rect width="43" height="43" fill="white"/>
</clipPath>
</defs>
</svg>
