<svg width="46" height="43" viewBox="0 0 46 43" fill="none" xmlns="http://www.w3.org/2000/svg">
<g clip-path="url(#clip0_8_69)">
<path d="M46 5.23595C44.3073 6.09533 42.4885 6.67614 40.5795 6.93743C42.5283 5.60011 44.0245 3.48241 44.7291 0.959199C42.8766 2.2179 40.8498 3.10473 38.7363 3.58138C37.0147 1.48137 34.5622 0.168945 31.8476 0.168945C26.6356 0.168945 22.4099 5.00716 22.4099 10.9745C22.4099 11.8215 22.4935 12.6461 22.6543 13.4372C14.8109 12.9864 7.85702 8.68459 3.20221 2.14694C2.39002 3.74288 1.92463 5.59929 1.92463 7.57935C1.92463 11.3284 3.59088 14.6357 6.12303 16.5735C4.62435 16.5198 3.15863 16.0563 1.84827 15.2218C1.84773 15.2671 1.84773 15.3124 1.84773 15.3578C1.84773 20.5933 5.10079 24.9608 9.41796 25.9535C8.02823 26.3863 6.57051 26.4496 5.15613 26.1387C6.35698 30.4317 9.84238 33.5557 13.972 33.6431C10.7421 36.5412 6.6727 38.2688 2.2513 38.2688C1.48943 38.2688 0.738336 38.2176 0 38.1178C4.17648 41.1837 9.13711 42.9727 14.4666 42.9727C31.8257 42.9727 41.3181 26.507 41.3181 12.2277C41.3181 11.759 41.3091 11.293 41.2908 10.8297C43.1384 9.30034 44.7331 7.40614 46 5.23595Z" fill="#55ACEE"/>
</g>
<defs>
<clipPath id="clip0_8_69">
<rect width="46" height="43" fill="white"/>
</clipPath>
</defs>
</svg>
