<svg width="43" height="46" viewBox="0 0 43 46" fill="none" xmlns="http://www.w3.org/2000/svg">
<path d="M36.638 38.8194H30.2668V28.283C30.2668 25.7706 30.2243 22.5362 26.9531 22.5362C23.6347 22.5362 23.1269 25.2737 23.1269 28.1002V38.8187H16.7559V17.1518H22.8721V20.1128H22.9578C23.5699 19.0076 24.4544 18.0984 25.5171 17.482C26.5798 16.8657 27.781 16.5653 28.9926 16.6127C35.4501 16.6127 36.6407 21.0981 36.6407 26.9332L36.638 38.8194ZM9.56683 14.1902C7.52483 14.1905 5.86916 12.4427 5.86883 10.2864C5.86849 8.13014 7.52349 6.38179 9.56548 6.38143C11.6075 6.3809 13.2631 8.12872 13.2635 10.285C13.2637 11.3205 12.8743 12.3137 12.181 13.046C11.4878 13.7784 10.5474 14.19 9.56683 14.1902ZM12.7525 38.8196H6.37458V17.1518H12.7524L12.7525 38.8196ZM39.8143 0.133188H3.1731C1.44134 0.112613 0.0211641 1.57752 0 3.40621V42.2599C0.0204922 44.0894 1.4405 45.5558 3.17293 45.5366H39.8143C41.5504 45.5593 42.976 44.093 43 42.2599V3.4032C42.9753 1.57096 41.5496 0.106227 39.8143 0.130172" fill="#0A66C2"/>
</svg>
